<?xml version="1.0" standalone="no"?>
<svg xmlns:xlink="http://www.w3.org/1999/xlink" id="wave" style="transform:rotate(0deg); transition: 0.3s" viewBox="0 0 1440 380" version="1.1" xmlns="http://www.w3.org/2000/svg"><defs><linearGradient id="sw-gradient-0" x1="0" x2="0" y1="1" y2="0"><stop stop-color="rgba(255, 0, 217.276, 1)" offset="0%"/><stop stop-color="rgba(158.833, 11, 255, 1)" offset="100%"/></linearGradient></defs><path style="transform:translate(0, 0px); opacity:1" fill="url(#sw-gradient-0)" d="M0,266L26.7,240.7C53.3,215,107,165,160,158.3C213.3,152,267,190,320,215.3C373.3,241,427,253,480,272.3C533.3,291,587,317,640,272.3C693.3,228,747,114,800,88.7C853.3,63,907,127,960,171C1013.3,215,1067,241,1120,240.7C1173.3,241,1227,215,1280,177.3C1333.3,139,1387,89,1440,101.3C1493.3,114,1547,190,1600,196.3C1653.3,203,1707,139,1760,152C1813.3,165,1867,253,1920,259.7C1973.3,266,2027,190,2080,145.7C2133.3,101,2187,89,2240,88.7C2293.3,89,2347,101,2400,133C2453.3,165,2507,215,2560,228C2613.3,241,2667,215,2720,177.3C2773.3,139,2827,89,2880,69.7C2933.3,51,2987,63,3040,88.7C3093.3,114,3147,152,3200,177.3C3253.3,203,3307,215,3360,202.7C3413.3,190,3467,152,3520,164.7C3573.3,177,3627,241,3680,253.3C3733.3,266,3787,228,3813,209L3840,190L3840,380L3813.3,380C3786.7,380,3733,380,3680,380C3626.7,380,3573,380,3520,380C3466.7,380,3413,380,3360,380C3306.7,380,3253,380,3200,380C3146.7,380,3093,380,3040,380C2986.7,380,2933,380,2880,380C2826.7,380,2773,380,2720,380C2666.7,380,2613,380,2560,380C2506.7,380,2453,380,2400,380C2346.7,380,2293,380,2240,380C2186.7,380,2133,380,2080,380C2026.7,380,1973,380,1920,380C1866.7,380,1813,380,1760,380C1706.7,380,1653,380,1600,380C1546.7,380,1493,380,1440,380C1386.7,380,1333,380,1280,380C1226.7,380,1173,380,1120,380C1066.7,380,1013,380,960,380C906.7,380,853,380,800,380C746.7,380,693,380,640,380C586.7,380,533,380,480,380C426.7,380,373,380,320,380C266.7,380,213,380,160,380C106.7,380,53,380,27,380L0,380Z"/></svg>